<?xml version="1.0" standalone="no"?>
<!DOCTYPE svg PUBLIC "-//W3C//DTD SVG 20010904//EN"
 "http://www.w3.org/TR/2001/REC-SVG-20010904/DTD/svg10.dtd">
<svg version="1.0" xmlns="http://www.w3.org/2000/svg"
 width="471.000000pt" height="471.000000pt" viewBox="0 0 471.000000 471.000000"
 preserveAspectRatio="xMidYMid meet">
<metadata>
Created by potrace 1.14, written by Peter Selinger 2001-2017
</metadata>
<g transform="translate(0.000000,471.000000) scale(0.100000,-0.100000)"
fill="#000000" stroke="none">
<path d="M2455 3740 c3 -5 0 -7 -8 -4 -10 3 -16 -5 -21 -27 -3 -18 -4 -34 -1
-37 3 -3 5 0 5 6 0 7 5 12 10 12 6 0 10 -8 10 -17 0 -15 2 -14 16 3 8 10 13
13 9 7 -3 -7 -2 -13 3 -13 17 0 21 28 5 34 -11 5 -13 10 -4 20 12 14 5 26 -16
26 -8 0 -11 -4 -8 -10z"/>
<path d="M1990 3712 c-13 -5 -13 -32 1 -32 5 0 7 5 4 10 -3 6 1 10 10 10 10 0
13 -5 9 -12 -4 -7 -4 -10 1 -6 4 4 16 3 27 -3 18 -9 18 -8 9 10 -10 18 -9 20
6 14 11 -4 15 -2 10 3 -8 9 -57 12 -77 6z"/>
<path d="M2663 3682 c-5 -4 -11 -14 -11 -22 -5 -58 -15 -77 -36 -77 -13 0 -23
6 -23 13 0 8 4 14 8 14 5 0 6 7 3 15 -9 22 -21 18 -22 -7 0 -13 -1 -29 -3 -36
-3 -10 9 -14 42 -15 37 -2 45 1 41 13 -4 10 5 8 31 -8 35 -20 49 -18 26 5 -7
7 -3 9 14 6 19 -4 27 0 32 16 8 25 -1 41 -21 41 -8 0 -14 5 -14 11 0 6 -7 8
-16 5 -8 -3 -12 -2 -9 4 7 12 -28 31 -42 22z m30 -78 c-4 -10 -9 -11 -18 -4
-6 5 -15 6 -20 2 -4 -4 -2 3 4 16 10 18 15 21 26 12 8 -6 11 -18 8 -26z"/>
<path d="M2670 3620 c0 -5 5 -10 11 -10 5 0 7 5 4 10 -3 6 -8 10 -11 10 -2 0
-4 -4 -4 -10z"/>
<path d="M1898 3639 c-10 -5 -18 -21 -18 -34 0 -24 34 -65 54 -65 6 0 3 5 -6
11 -23 13 -23 27 -1 31 15 3 15 4 0 17 -15 12 -17 11 -17 -3 0 -9 -4 -16 -9
-16 -6 0 -9 9 -8 20 1 11 6 20 12 20 7 0 12 7 12 15 0 8 -1 15 -1 15 -1 0 -9
-5 -18 -11z"/>
<path d="M2136 3615 c4 -15 2 -25 -5 -25 -6 0 -8 6 -5 14 3 8 1 17 -4 20 -6 3
-13 -5 -16 -19 -4 -14 -14 -25 -24 -26 -9 0 -12 -3 -5 -5 7 -3 9 -13 6 -22 -3
-9 3 -5 14 10 15 22 22 25 37 16 21 -12 287 -15 305 -4 6 4 11 13 10 19 -3 23
1 37 10 37 10 0 7 -32 -4 -49 -3 -5 -1 -12 4 -15 14 -9 25 54 12 67 -14 14
-41 -9 -41 -34 0 -18 -10 -19 -143 -19 l-143 0 2 30 c1 17 -2 30 -7 30 -5 0
-7 -11 -3 -25z"/>
<path d="M2542 3599 c-9 -14 -20 -19 -33 -16 -10 3 -22 1 -25 -4 -3 -5 -2 -9
3 -8 22 4 34 -2 27 -13 -6 -10 -4 -10 7 0 16 15 29 16 29 1 0 -5 -4 -7 -10 -4
-5 3 -10 2 -10 -2 0 -5 15 -9 34 -10 l35 -1 -27 25 c-15 13 -22 22 -15 19 7
-4 11 1 10 14 -2 26 -9 25 -25 -1z"/>
<path d="M2970 3600 c0 -5 5 -10 11 -10 5 0 7 5 4 10 -3 6 -8 10 -11 10 -2 0
-4 -4 -4 -10z"/>
<path d="M2755 3572 c-11 -16 -13 -22 -4 -15 12 10 18 10 27 1 9 -9 12 -9 12
-1 0 6 -6 14 -12 16 -10 4 -10 6 0 6 6 1 12 6 12 11 0 18 -14 10 -35 -18z"/>
<path d="M3030 3591 c0 -5 8 -10 18 -10 65 1 312 -63 449 -116 381 -148 696
-411 843 -705 132 -265 138 -577 15 -836 -41 -87 -108 -191 -155 -244 -17 -19
-35 -39 -38 -45 -8 -12 -135 -129 -176 -163 -147 -122 -468 -280 -645 -317 -9
-2 -45 -10 -81 -18 -36 -9 -87 -18 -114 -22 -27 -3 -52 -8 -55 -10 -11 -6
-236 -19 -341 -18 -96 0 -239 9 -300 19 -161 26 -341 75 -447 121 -21 9 -40
17 -43 18 -3 0 -45 20 -95 44 -89 43 -257 148 -305 192 -14 12 -43 38 -65 58
-45 41 -19 5 36 -49 163 -159 387 -294 619 -373 373 -127 713 -149 1120 -72
240 46 558 189 738 332 68 54 202 189 250 253 23 30 46 60 51 66 33 40 159
304 145 304 -3 0 0 9 5 19 6 10 13 34 15 52 3 19 10 52 15 74 32 131 8 398
-49 540 -29 72 -95 205 -102 205 -4 0 -8 6 -8 13 0 28 -125 174 -243 285 -69
63 -228 168 -341 224 -181 89 -447 166 -591 172 -22 1 -45 4 -50 7 -18 10 -75
9 -75 0z"/>
<path d="M2110 3560 c0 -5 5 -10 10 -10 6 0 10 5 10 10 0 6 -4 10 -10 10 -5 0
-10 -4 -10 -10z"/>
<path d="M1970 3551 c0 -6 4 -13 10 -16 6 -3 7 1 4 9 -7 18 -14 21 -14 7z"/>
<path d="M2026 3548 c3 -5 10 -6 15 -3 13 9 11 12 -6 12 -8 0 -12 -4 -9 -9z"/>
<path d="M2533 3518 c-21 -27 -22 -36 -8 -41 10 -4 12 -1 9 11 -5 15 -4 15 8
2 14 -17 39 -21 37 -6 0 5 4 12 11 16 8 5 6 11 -5 20 -12 10 -15 10 -15 0 0
-9 -3 -10 -14 -1 -10 8 -16 8 -23 -1z"/>
<path d="M1053 3362 c-6 -4 -12 -30 -12 -57 -1 -28 -2 -66 -4 -85 -1 -20 4
-41 12 -50 14 -15 56 -26 48 -12 -6 9 224 9 239 0 20 -13 65 -17 58 -6 -5 7 0
9 14 6 12 -4 20 -2 16 3 -7 12 -1 11 33 -2 42 -16 62 -19 68 -9 4 6 14 4 26
-3 17 -10 23 -9 36 8 11 15 17 17 20 7 4 -10 12 -7 31 10 l26 23 -17 -28 c-17
-27 -17 -27 0 -16 10 6 24 22 30 35 6 13 8 22 3 19 -4 -2 -10 9 -14 25 -5 28
-36 44 -36 20 0 -6 6 -9 12 -8 7 2 14 -7 16 -19 2 -13 -2 -23 -8 -23 -7 0 -9
8 -5 19 4 14 1 19 -9 17 -19 -3 -34 -16 -18 -16 15 0 16 -27 1 -36 -6 -3 -16
-1 -22 5 -8 8 -8 11 2 11 7 0 9 5 6 10 -5 8 -12 7 -23 -2 -12 -10 -14 -10 -8
0 4 6 3 12 -3 12 -5 0 -14 -8 -19 -17 -15 -25 -42 -25 -42 0 0 20 0 20 -14 2
-8 -11 -12 -24 -9 -29 4 -5 1 -6 -6 -1 -9 5 -10 10 -2 18 13 13 14 27 2 27 -5
0 -13 -9 -16 -20 -5 -15 -15 -20 -41 -20 -31 0 -34 2 -35 33 -1 17 -1 36 0 40
1 5 -3 5 -9 2 -6 -4 -9 -13 -6 -20 3 -8 -3 -19 -12 -27 -15 -12 -16 -11 -3 5
7 9 9 17 4 17 -5 0 -15 -11 -21 -24 -10 -24 -16 -25 -115 -28 -126 -4 -137 -2
-137 22 0 13 -5 17 -14 14 -8 -3 -12 -13 -9 -22 4 -15 3 -15 -6 -2 -8 12 -6
18 9 29 22 15 27 32 8 27 -7 -1 -10 -1 -5 1 4 3 4 10 1 15 -4 6 -2 8 3 5 7 -5
10 11 9 45 -1 51 -10 65 -33 50z m10 -17 c-3 -9 -8 -14 -10 -11 -3 3 -2 9 2
15 9 16 15 13 8 -4z m521 -180 c-7 -17 -30 -20 -38 -6 -4 5 0 12 6 14 25 10
37 7 32 -8z m-54 1 c0 -3 -4 -8 -10 -11 -5 -3 -10 -1 -10 4 0 6 5 11 10 11 6
0 10 -2 10 -4z"/>
<path d="M1714 3358 c-5 -8 -2 -9 9 -5 19 7 21 -7 6 -38 -9 -19 -9 -18 -5 3 2
12 0 22 -5 22 -5 0 -9 -19 -10 -42 0 -24 -2 -64 -4 -89 -1 -26 1 -53 6 -60 5
-8 9 -12 10 -9 8 45 11 55 19 60 5 3 9 43 9 88 0 63 -3 82 -14 82 -8 0 -17 -5
-21 -12z m24 -103 c0 -19 -3 -37 -7 -39 -3 -2 -6 13 -6 35 0 21 3 39 6 39 4 0
7 -16 7 -35z"/>
<path d="M2765 3340 c-3 -6 -17 -7 -29 -4 -16 4 -25 0 -29 -10 -7 -18 28 -42
38 -26 4 7 12 7 25 0 14 -7 19 -6 24 6 4 12 2 15 -9 10 -9 -3 -15 0 -15 10 0
9 5 12 12 8 7 -4 8 -3 4 4 -9 15 -13 15 -21 2z m-27 -35 c-3 -3 -9 2 -12 12
-6 14 -5 15 5 6 7 -7 10 -15 7 -18z"/>
<path d="M1333 3305 c-8 -21 -1 -26 40 -30 38 -3 52 11 36 36 -7 12 -14 11
-40 -4 -25 -14 -29 -15 -19 -2 9 10 9 15 1 15 -6 0 -14 -7 -18 -15z m72 -5 c3
-5 1 -10 -4 -10 -6 0 -11 5 -11 10 0 6 2 10 4 10 3 0 8 -4 11 -10z"/>
<path d="M2641 3307 c-9 -12 -6 -18 13 -31 34 -22 38 -20 34 11 -3 31 -29 41
-47 20z m23 -5 c3 -5 -1 -9 -9 -9 -8 0 -12 4 -9 9 3 4 7 8 9 8 2 0 6 -4 9 -8z"/>
<path d="M886 3282 c-7 -12 10 -25 35 -27 10 -1 16 5 14 14 -2 19 -25 27 -25
9 0 -11 -2 -11 -9 1 -5 8 -11 9 -15 3z"/>
<path d="M2752 3261 c-19 -16 -21 -23 -12 -46 5 -14 10 -27 10 -28 0 -2 -11
-4 -23 -5 -14 -1 -33 9 -47 23 -28 30 -44 32 -37 6 4 -15 0 -19 -14 -16 -11 2
-19 0 -19 -6 0 -5 -11 -9 -25 -9 -14 0 -25 5 -25 11 0 5 4 8 9 5 4 -3 6 6 3
19 -5 26 -16 32 -27 15 -4 -6 -10 -8 -15 -5 -5 3 -10 -5 -12 -17 -3 -22 -8
-23 -95 -26 -51 -1 -93 -6 -93 -10 0 -4 32 -7 70 -6 39 0 70 -3 70 -9 0 -5 7
-4 14 3 13 10 14 7 11 -17 -2 -15 -2 -22 1 -15 3 6 10 10 14 7 5 -3 0 -15 -11
-26 -16 -16 -17 -22 -7 -33 7 -8 17 -11 23 -8 5 3 22 5 37 4 23 -2 26 1 23 20
-5 22 -24 40 -35 33 -3 -2 -12 6 -20 18 -12 20 -11 21 2 9 17 -13 80 -13 72 0
-3 5 -10 5 -16 2 -7 -4 -8 -2 -4 4 9 15 12 15 30 -4 12 -12 16 -12 16 -2 0 10
3 9 10 -2 7 -10 10 -11 10 -2 0 10 4 10 20 0 17 -11 22 -10 29 1 7 11 13 11
32 0 22 -11 23 -11 10 4 -17 21 -8 22 13 2 14 -14 17 -13 32 10 14 22 15 32 6
62 -6 20 -9 40 -6 45 8 12 1 9 -24 -11z m19 -23 c0 -7 2 -24 5 -38 3 -18 2
-21 -5 -10 -5 8 -7 18 -5 22 3 4 0 8 -5 8 -6 0 -11 7 -11 15 0 18 20 20 21 3z
m-226 -55 c-2 -10 -4 -19 -4 -21 -1 -2 -6 0 -11 3 -8 5 -7 11 1 21 15 18 18
18 14 -3z"/>
<path d="M2666 3242 c-3 -6 -1 -14 5 -17 15 -10 25 3 12 16 -7 7 -13 7 -17 1z"/>
<path d="M985 3230 c3 -6 -1 -7 -9 -4 -20 8 -21 -5 -1 -20 19 -14 26 -48 14
-67 -8 -12 -10 -12 -8 1 3 32 -1 60 -10 60 -5 0 -7 -18 -4 -40 5 -36 4 -40
-16 -40 -12 0 -19 -4 -16 -10 8 -13 2 -13 -32 2 -36 16 -54 34 -45 43 4 5 -2
5 -13 2 -19 -7 -19 -6 -2 7 19 15 23 36 6 36 -5 0 -7 -4 -4 -10 4 -6 -1 -7
-11 -3 -15 6 -16 1 -11 -37 3 -23 10 -47 15 -52 13 -13 100 -19 108 -7 3 5 10
7 15 4 5 -4 9 -1 9 6 0 7 3 9 7 6 11 -11 32 27 33 58 0 40 -10 75 -22 75 -5 0
-6 -4 -3 -10z"/>
<path d="M1982 3231 c-10 -6 -12 -21 -7 -55 4 -25 3 -46 -1 -46 -20 0 -34 -18
-28 -33 3 -9 10 -17 15 -17 4 0 5 8 2 18 -6 14 -4 15 9 4 10 -8 19 -9 22 -3 4
5 2 12 -4 16 -6 4 -7 12 -1 22 5 9 5 29 1 45 -6 17 -5 30 2 34 6 4 8 2 4 -4
-3 -6 -2 -13 4 -17 6 -4 8 -10 5 -15 -3 -5 -1 -11 5 -15 6 -4 4 -12 -5 -22 -9
-8 -14 -18 -11 -20 7 -7 36 23 36 36 0 6 5 11 10 11 6 0 9 -6 8 -12 -2 -7 8
-14 22 -16 19 -2 22 -1 10 7 -8 5 -18 7 -23 4 -5 -3 -3 5 4 18 7 13 12 29 10
34 -1 6 1 6 5 2 11 -11 14 -38 3 -31 -5 3 -9 0 -9 -7 0 -7 10 -9 25 -7 14 3
28 1 32 -5 4 -6 1 -7 -7 -2 -9 6 -11 4 -5 -5 6 -10 11 -9 22 5 7 11 13 23 13
28 0 4 5 5 10 2 6 -3 10 -11 10 -16 0 -6 -4 -7 -10 -4 -5 3 -10 1 -10 -4 0
-13 13 -14 24 -4 4 4 36 8 72 9 89 2 94 14 6 14 -69 0 -71 1 -74 27 -2 14 -10
28 -18 31 -12 4 -13 2 -2 -9 15 -16 16 -29 1 -29 -5 0 -8 4 -5 9 3 5 -1 12 -9
15 -9 3 -15 1 -14 -7 3 -23 -1 -37 -11 -37 -5 0 -10 9 -10 19 0 25 -38 24 -51
-1 -15 -27 -36 -22 -48 12 -11 33 -11 33 -29 21z"/>
<path d="M1860 3185 c-1 -11 -2 -27 -1 -37 1 -9 -3 -19 -9 -23 -6 -4 -8 6 -5
30 2 21 0 33 -5 30 -11 -7 -13 -45 -4 -69 10 -27 43 -39 62 -24 10 8 13 9 9 1
-5 -8 0 -11 13 -10 11 1 20 4 20 7 0 11 -15 25 -30 28 -26 6 -39 22 -43 55 -2
19 -5 24 -7 12z m20 -59 c0 -2 -8 -10 -17 -17 -16 -13 -17 -12 -4 4 13 16 21
21 21 13z"/>
<path d="M1742 3170 c0 -14 2 -19 5 -12 2 6 2 18 0 25 -3 6 -5 1 -5 -13z"/>
<path d="M2716 3023 c-10 -10 5 -23 26 -23 19 0 20 -2 7 -17 -11 -14 -13 -42
-9 -123 5 -97 7 -105 25 -105 19 0 20 7 22 114 2 96 5 115 20 126 10 7 15 17
10 21 -9 9 -93 15 -101 7z m54 -79 c0 -8 -4 -14 -8 -14 -4 0 -8 9 -8 19 0 11
4 17 8 15 4 -3 8 -12 8 -20z m6 -120 c1 -43 -2 -64 -9 -61 -14 4 -17 75 -5
100 6 11 5 17 -2 17 -6 0 -8 5 -5 11 13 19 19 -1 21 -67z"/>
<path d="M500 2976 c-5 -5 -5 -16 1 -27 5 -10 6 -31 3 -46 -4 -16 -8 -47 -8
-70 -1 -22 -4 -39 -8 -36 -5 2 -8 -2 -8 -9 0 -10 -2 -10 -9 1 -6 9 -10 10 -16
2 -4 -8 -11 -9 -18 -3 -7 5 -20 9 -29 9 -15 0 -15 -3 -5 -15 10 -13 9 -14 -10
-3 -19 10 -23 9 -23 -4 0 -9 4 -14 9 -11 5 3 14 0 20 -8 14 -17 3 -22 -60 -25
-46 -2 -86 19 -74 40 4 5 1 9 -5 9 -6 0 -8 5 -5 10 3 6 2 10 -4 10 -17 0 -28
-33 -22 -60 4 -15 22 -33 43 -44 32 -18 41 -19 92 -7 31 7 54 16 51 21 -3 4 3
7 13 6 9 0 21 9 27 22 5 12 17 22 25 22 9 0 21 5 28 12 9 9 12 9 12 0 0 -6 7
-9 17 -5 11 4 14 3 9 -5 -10 -16 16 -15 36 1 17 13 37 84 21 74 -5 -3 -9 4 -8
16 1 12 -4 31 -11 41 -9 13 -10 25 -4 36 5 10 6 20 3 24 -3 3 0 6 7 6 11 0 11
3 2 12 -14 14 -79 17 -92 4z"/>
<path d="M2632 2977 c-11 -12 -6 -57 6 -57 9 0 31 35 32 49 0 11 -4 9 -15 -5
-14 -18 -14 -18 -8 4 6 25 1 28 -15 9z"/>
<path d="M1479 2975 c-2 0 -6 -56 -10 -133 -2 -43 1 -57 19 -74 20 -21 22 -21
40 -5 10 9 21 15 23 12 3 -2 22 -7 42 -9 28 -4 36 -2 30 7 -4 7 2 5 12 -3 11
-9 16 -10 11 -2 -4 6 -2 12 3 12 6 0 11 -4 11 -9 0 -6 13 -6 31 1 23 8 37 8
49 0 10 -6 21 -8 24 -4 10 10 56 10 50 0 -3 -4 -9 -6 -14 -3 -5 3 -11 1 -15
-4 -3 -6 4 -8 17 -5 60 14 96 15 102 6 4 -6 13 -9 21 -6 8 4 13 9 11 13 -3 4
4 8 15 8 10 1 19 -4 19 -10 0 -7 4 -6 10 3 8 13 10 13 10 -2 0 -12 6 -16 21
-13 12 3 22 6 23 7 1 2 10 14 21 27 11 14 14 21 6 16 -11 -6 -13 -3 -9 13 9
31 -8 37 -38 13 -15 -12 -21 -21 -15 -21 7 0 9 -5 6 -10 -5 -8 -12 -7 -23 2
-12 10 -14 10 -8 1 4 -8 1 -13 -8 -13 -9 0 -15 3 -15 8 4 22 -3 31 -18 25 -10
-3 -14 -2 -10 2 4 5 -12 17 -35 26 -54 22 -69 23 -62 4 5 -12 2 -14 -12 -8
-17 6 -17 5 -6 -10 8 -8 20 -13 28 -10 8 3 14 -1 14 -11 0 -9 -7 -17 -15 -17
-8 -1 -28 -3 -45 -4 -16 -1 -31 -3 -32 -5 -2 -1 -52 -2 -113 -3 -79 0 -114 -5
-124 -14 -18 -18 -28 -8 -11 12 10 12 10 18 0 30 -7 8 -8 15 -3 15 5 0 9 33 9
74 -1 73 -5 80 -37 71z m22 -38 c-10 -9 -11 -8 -5 6 3 10 9 15 12 12 3 -3 0
-11 -7 -18z m-10 -40 c-10 -9 -11 -8 -5 6 3 10 9 15 12 12 3 -3 0 -11 -7 -18z
m14 -31 c0 -13 -3 -28 -7 -31 -4 -4 -3 -16 2 -26 10 -17 -3 -38 -13 -22 -10
17 4 103 17 103 1 0 2 -11 1 -24z m365 -28 c0 -6 -6 -5 -15 2 -8 7 -15 14 -15
16 0 2 7 1 15 -2 8 -4 15 -11 15 -16z"/>
<path d="M2087 2973 c-2 -5 -5 -30 -6 -58 -1 -27 -4 -51 -6 -54 -2 -2 -1 -11
4 -20 5 -9 5 -25 1 -36 -10 -27 34 -63 55 -45 8 7 15 9 15 4 0 -5 5 -2 10 6 6
10 10 11 10 3 0 -7 4 -13 10 -13 5 0 7 7 4 15 -4 8 -17 15 -29 15 -13 0 -27 5
-30 10 -4 6 -11 8 -16 5 -5 -4 -9 -1 -9 5 0 7 7 10 15 6 24 -9 17 10 -7 22
-19 10 -20 11 -4 9 15 -2 19 5 21 31 1 22 -3 32 -13 32 -12 0 -12 -2 -1 -17 9
-11 10 -14 2 -9 -9 5 -11 2 -7 -8 3 -9 2 -16 -3 -16 -12 0 -11 66 1 77 5 4 6
3 2 -4 -4 -8 -1 -13 8 -13 9 0 14 9 13 23 -1 29 -29 49 -40 30z m38 -192 c3
-5 2 -12 -3 -15 -5 -3 -9 1 -9 9 0 17 3 19 12 6z"/>
<path d="M1036 2939 c-12 -24 -13 -35 -5 -45 14 -17 33 -18 23 -1 -6 9 -5 9 8
0 8 -7 18 -10 21 -6 4 3 7 0 7 -8 1 -10 5 -8 15 5 19 26 19 36 -2 36 -9 0 -13
3 -10 6 10 10 -12 44 -28 44 -7 0 -21 -14 -29 -31z"/>
<path d="M2634 2888 c-3 -11 3 -29 15 -44 25 -32 27 -50 5 -58 -8 -3 -12 -2
-9 4 4 7 -3 7 -19 0 -14 -5 -26 -6 -26 -3 0 4 -5 2 -12 -5 -24 -24 26 -50 59
-29 6 4 18 4 26 1 9 -3 21 4 30 16 18 26 8 72 -23 105 -11 12 -18 24 -15 27 3
2 -2 5 -10 5 -8 0 -17 -9 -21 -19z m66 -69 c0 -5 -4 -9 -10 -9 -5 0 -9 3 -9 8
3 19 -2 32 -12 30 -6 -2 -13 6 -15 17 -2 17 1 16 22 -8 13 -15 24 -32 24 -38z"/>
<path d="M1317 2894 c-8 -8 3 -34 15 -34 14 0 38 27 31 34 -8 8 -38 8 -46 0z"/>
<path d="M1783 2863 c-3 -10 -8 -21 -9 -24 -2 -4 3 -10 12 -13 11 -4 15 -2 11
8 -3 7 -1 18 5 24 6 6 6 12 -1 17 -6 3 -14 -2 -18 -12z"/>
<path d="M1117 2856 c3 -5 7 -21 9 -37 3 -25 1 -27 -21 -23 -17 3 -25 0 -25
-9 0 -9 9 -13 25 -12 14 2 25 0 25 -4 0 -4 -18 -7 -40 -7 -22 0 -35 3 -29 7 8
5 7 8 -2 12 -10 4 -10 6 -1 6 6 1 12 8 12 16 0 9 6 12 15 9 15 -6 21 7 9 19
-10 10 -44 -12 -44 -29 0 -19 -31 -15 -38 5 -3 9 0 11 9 6 8 -5 10 -4 6 0 -4
5 -18 11 -31 12 -17 2 -25 -2 -29 -17 -4 -15 -14 -20 -39 -21 -201 -7 -214 -5
-230 42 -11 32 -20 36 -37 15 -9 -10 -9 -20 -2 -34 11 -21 9 -53 -4 -51 -4 0
-11 -4 -14 -10 -4 -6 -19 -12 -34 -13 -21 -2 -24 -5 -14 -17 10 -12 9 -13 -2
-7 -9 6 -12 5 -9 -5 3 -8 11 -13 17 -11 6 1 11 -2 11 -8 0 -5 15 -1 33 9 17
10 31 24 29 31 -1 6 2 8 9 5 6 -4 17 3 26 14 12 19 17 20 31 9 9 -7 13 -8 9
-2 -4 7 13 10 51 9 31 -1 63 3 71 9 11 8 13 8 8 -1 -5 -8 0 -11 13 -10 11 1
20 5 20 11 0 5 9 1 20 -9 17 -15 24 -16 46 -7 15 7 23 8 19 2 -3 -5 1 -10 10
-10 9 0 14 4 11 9 -6 10 24 25 32 16 3 -3 -1 -5 -9 -5 -11 -1 -11 -2 1 -9 20
-12 100 -11 100 1 0 5 5 6 10 3 17 -11 30 41 19 74 -8 23 -16 30 -34 29 -13
-1 -21 -6 -18 -12z m37 -28 c-3 -4 0 -8 5 -8 6 0 11 -4 11 -10 0 -5 -7 -7 -16
-3 -8 3 -13 12 -10 19 3 8 1 14 -5 14 -6 0 -7 5 -3 11 4 8 9 7 15 -2 4 -7 5
-17 3 -21z m-464 8 c0 -3 -4 -8 -10 -11 -5 -3 -10 -1 -10 4 0 6 5 11 10 11 6
0 10 -2 10 -4z m310 -25 c0 -5 -8 -15 -17 -22 -16 -12 -17 -12 -6 2 7 9 10 19
6 22 -3 4 -1 7 5 7 7 0 12 -4 12 -9z m-45 -49 c-3 -3 -11 0 -18 7 -9 10 -8 11
6 5 10 -3 15 -9 12 -12z"/>
<path d="M2003 2853 c-9 -22 2 -25 20 -5 15 17 16 19 1 19 -9 0 -18 -7 -21
-14z"/>
<path d="M2374 2858 c-5 -7 -9 -25 -8 -39 1 -29 3 -29 -114 -30 -42 -1 -62 -5
-59 -13 4 -13 37 -15 55 -2 8 5 12 4 12 -4 0 -10 3 -10 15 0 12 10 15 10 15
-1 0 -10 3 -10 12 -1 15 15 31 16 22 0 -5 -7 -3 -8 7 -2 24 15 41 14 35 -2 -3
-9 -1 -12 4 -9 6 3 10 1 10 -6 0 -7 9 -2 20 11 21 24 24 48 14 88 -7 24 -26
29 -40 10z"/>
<path d="M2517 2846 c-8 -20 3 -87 16 -106 9 -12 8 -13 -3 -3 -10 9 -18 9 -34
0 -12 -6 -24 -12 -28 -13 -5 -1 -11 -2 -14 -3 -7 -1 22 -31 30 -31 3 0 6 8 6
18 0 14 2 15 10 2 8 -13 14 -8 12 11 -1 4 6 6 16 5 10 0 16 6 16 16 -1 10 3
16 9 15 13 -2 14 25 2 71 -8 33 -29 43 -38 18z"/>
<path d="M1386 2826 c2 -12 8 -22 13 -24 12 -4 2 -43 -17 -64 -8 -10 -20 -15
-26 -11 -6 4 -4 -2 4 -12 14 -19 14 -19 -10 -4 -39 24 -62 31 -58 17 3 -7 13
-13 23 -13 10 0 20 -5 22 -12 5 -13 -34 -7 -53 9 -19 14 -25 51 -8 44 10 -4
14 3 13 27 0 18 -3 27 -5 20 -3 -7 -12 -9 -20 -6 -21 8 -18 -60 4 -85 18 -21
64 -36 75 -25 4 3 19 8 34 9 36 4 63 38 62 78 -1 46 -13 69 -36 71 -16 1 -20
-3 -17 -19z m35 -15 c5 -24 4 -69 -2 -66 -3 3 -6 15 -5 27 1 13 -5 31 -13 41
-13 16 -13 17 2 11 9 -3 18 -9 18 -13z m-20 -94 c-10 -9 -11 -8 -5 6 3 10 9
15 12 12 3 -3 0 -11 -7 -18z"/>
<path d="M3111 2825 c-129 -36 -234 -124 -295 -245 -20 -40 -36 -81 -36 -90 0
-19 65 -19 -700 -6 -206 4 -463 9 -570 11 -107 2 -443 7 -747 11 l-552 6 -16
-58 c-9 -33 -23 -81 -31 -108 -7 -27 -11 -53 -8 -58 6 -10 190 -6 364 7 36 2
159 7 275 10 116 3 248 7 295 9 47 2 189 7 315 10 127 3 266 9 310 11 44 3
143 7 220 10 77 3 176 8 220 10 88 4 456 17 550 19 49 1 60 -2 63 -17 2 -12
-3 -17 -20 -18 -13 0 -39 -2 -58 -4 -19 -1 -100 -5 -180 -9 -80 -4 -167 -9
-195 -11 -27 -2 -111 -6 -185 -10 -74 -3 -151 -8 -170 -10 -19 -2 -100 -7
-180 -10 -80 -3 -161 -8 -180 -10 -19 -2 -89 -7 -155 -10 -298 -13 -354 -16
-419 -21 -39 -4 -102 -7 -140 -9 -237 -10 -353 -18 -370 -25 -17 -6 -24 -25
-37 -99 -9 -52 -12 -94 -7 -97 5 -3 25 -3 46 0 77 11 229 28 270 29 17 1 32 4
32 7 0 3 19 5 43 6 47 0 183 12 237 20 19 3 52 7 73 9 21 2 57 7 80 11 23 4
67 8 97 10 30 1 55 3 55 4 0 1 21 3 46 5 25 1 59 5 75 9 27 5 100 14 189 21
98 9 207 20 290 31 17 2 59 6 95 10 64 5 379 38 476 49 155 18 181 20 197 17
19 -4 24 -32 5 -33 -7 0 -22 -2 -33 -5 -11 -2 -45 -6 -75 -9 -30 -4 -62 -8
-70 -10 -8 -3 -42 -7 -75 -10 -33 -3 -94 -10 -135 -16 -41 -5 -93 -11 -115
-13 -64 -7 -137 -16 -175 -22 -37 -6 -60 -9 -150 -19 -80 -8 -102 -11 -135
-18 -16 -4 -59 -9 -95 -12 -64 -5 -117 -11 -175 -19 -16 -3 -57 -7 -90 -11
-33 -3 -73 -8 -90 -10 -16 -2 -57 -7 -90 -10 -33 -3 -91 -10 -130 -15 -38 -5
-91 -12 -117 -15 -51 -5 -125 -14 -171 -20 -47 -7 -43 3 -72 -182 -5 -28 11
-29 115 -7 83 17 96 20 155 29 22 3 82 15 135 26 52 11 110 22 129 25 18 3 43
8 55 10 11 3 57 11 101 19 44 8 91 17 105 20 60 12 147 28 175 31 17 2 44 8
60 14 29 9 68 16 150 26 22 3 54 9 70 14 17 5 48 12 70 15 142 21 151 23 173
29 24 7 69 16 117 22 22 3 48 7 57 10 10 3 30 7 45 10 16 2 37 6 49 9 12 3 39
7 60 10 21 3 73 12 114 20 41 7 83 13 92 13 21 -2 33 -27 15 -33 -14 -4 -152
-35 -187 -41 -14 -3 -97 -21 -185 -41 -273 -61 -419 -93 -440 -97 -119 -25
-226 -49 -300 -66 -49 -12 -101 -24 -115 -26 -14 -3 -56 -11 -95 -19 -38 -8
-79 -16 -90 -18 -11 -1 -26 -6 -32 -10 -7 -5 -13 -6 -13 -4 0 2 -26 -2 -57
-10 -32 -8 -74 -16 -93 -19 -48 -7 -100 -24 -98 -32 1 -4 -4 -40 -11 -80 -7
-40 -10 -76 -7 -79 5 -5 184 42 411 108 39 12 95 27 125 34 57 14 97 25 260
70 52 15 127 35 165 45 72 19 166 44 295 80 41 11 84 23 95 25 11 3 52 14 90
25 39 12 79 23 89 25 10 3 58 15 105 29 150 43 156 43 198 6 20 -18 64 -46 98
-61 220 -104 473 -28 599 180 100 163 86 363 -35 527 -43 58 -100 102 -187
142 -71 33 -215 41 -301 17z m218 -36 c65 -15 148 -58 192 -101 21 -21 39 -40
39 -43 0 -15 -74 -75 -127 -102 -149 -80 -345 -57 -471 56 -48 42 -51 52 -19
82 100 96 253 139 386 108z m-319 -276 c163 -95 397 -72 535 52 37 34 40 35
56 18 41 -44 69 -195 51 -279 -15 -69 -32 -110 -40 -98 -17 25 -131 109 -177
130 -57 26 -83 32 -176 41 -118 10 -256 -44 -353 -139 -36 -36 -52 -45 -58
-36 -20 32 -32 100 -32 183 0 73 4 100 24 145 36 82 38 83 90 40 25 -20 61
-46 80 -57z m363 -198 c27 -9 72 -31 101 -50 50 -32 116 -97 116 -114 0 -5
-13 -24 -30 -42 -16 -19 -30 -37 -30 -41 0 -10 -97 -67 -154 -90 -105 -42
-272 -26 -360 35 -54 37 -126 111 -126 128 0 9 20 39 44 66 102 113 289 159
439 108z"/>
<path d="M2009 2738 c-1 -2 -3 -13 -4 -25 -3 -28 17 -36 42 -18 15 13 16 16 3
24 -9 7 -19 6 -29 -2 -12 -10 -14 -9 -8 6 5 13 1 26 -4 15z"/>
<path d="M1830 2715 c-7 -9 -11 -17 -9 -20 3 -2 10 5 17 15 14 24 10 26 -8 5z"/>
<path d="M2366 2713 c-7 -17 10 -43 27 -43 5 0 3 8 -6 18 -14 15 -15 19 -2 19
8 0 12 -4 9 -9 -3 -4 -1 -8 5 -8 21 0 19 18 -3 28 -20 9 -25 8 -30 -5z"/>
</g>
</svg>
